<svg xmlns="http://www.w3.org/2000/svg" xml:space="preserve" viewBox="233.4 230.7 45.1 50.9">
  <path fill="#4F4F4F" d="m277 262.8-5 1.3-3.5-2 5.6-1.5a1.1 1.1 0 1 0-.6-2.2l-7.8 2.1-3-1.7-.3-.1 3.2-1.4a1.1 1.1 0 0 0 0-2l-3.2-1.5h.3l3-1.8 7.9 2.1a1.1 1.1 0 1 0 .5-2.2l-5.6-1.5 3.4-2 5.2 1.4a1.1 1.1 0 1 0 .5-2.2l-3-.8 3-1.6a1.1 1.1 0 1 0-1.2-2l-2.9 1.7.8-3a1.1 1.1 0 1 0-2.1-.6l-1.4 5.1-3.5 2 1.5-5.6a1.1 1.1 0 0 0-2.1-.7l-2.1 8-3 1.7c-.1 0-.2 0-.3.2l.4-3.5a1.1 1.1 0 0 0-1.8-1l-2.8 2v-3.6l5.8-5.8a1.1 1.1 0 0 0-1.6-1.6l-4.1 4.2v-4l3.7-3.8a1.1 1.1 0 1 0-1.6-1.6l-2.1 2.2v-3.3a1.1 1.1 0 1 0-2.3 0v3.3l-2.2-2.2a1.1 1.1 0 0 0-1.6 1.6l3.8 3.8v4l-4.2-4.2a1.1 1.1 0 1 0-1.5 1.6l5.7 5.8v3.6l-2.7-2a1.1 1.1 0 0 0-1.8 1l.3 3.5-.2-.2-3-1.8-2.1-7.8a1.1 1.1 0 1 0-2.2.6l1.5 5.7-3.4-2-1.4-5.2a1.1 1.1 0 1 0-2.2.6l.8 3-2.8-1.7a1.1 1.1 0 0 0-1.1 2l2.8 1.6-3 .8a1.1 1.1 0 1 0 .6 2.2l5.2-1.4 3.4 2-5.7 1.5a1.1 1.1 0 1 0 .6 2.2l7.9-2.1 3 1.7.3.1-3.2 1.4a1.1 1.1 0 0 0 0 2l3.2 1.5a1 1 0 0 0-.3.1l-3 1.7-7.9-2a1.1 1.1 0 1 0-.6 2.1l5.7 1.5-3.4 2-5.2-1.3a1.1 1.1 0 1 0-.6 2.1l3 .8-2.9 1.7a1.1 1.1 0 1 0 1.2 2l2.8-1.7-.8 3a1.1 1.1 0 0 0 2.2.5l1.4-5.1 3.4-2-1.5 5.7a1.1 1.1 0 0 0 2.2.6l2.1-7.9 3-1.7.3-.2-.4 3.4a1.1 1.1 0 0 0 1.8 1l2.8-2v3.7l-5.8 5.8a1.1 1.1 0 1 0 1.5 1.6l4.2-4.2v4l-3.8 3.8a1.1 1.1 0 1 0 1.6 1.6l2.2-2.2v3.3a1.1 1.1 0 1 0 2.3 0v-3.3l2.1 2.2a1.1 1.1 0 1 0 1.6-1.6l-3.7-3.8v-4l4.1 4.2a1.1 1.1 0 1 0 1.6-1.6l-5.7-5.7V263l2.7 2a1.1 1.1 0 0 0 1.8-1l-.4-3.5.3.3 3 1.7 2 7.8a1.1 1.1 0 1 0 2.2-.5l-1.5-5.7 3.5 2 1.4 5.1a1.1 1.1 0 1 0 2.1-.6l-.7-3 2.8 1.7c.5.3 1.2.1 1.5-.4.3-.5.2-1.2-.4-1.5l-2.8-1.7 3-.7a1.1 1.1 0 1 0-.6-2.2zm-17.5-5.3c-.4.2-.7.7-.7 1.2l.4 3-2.5-1.8c-.4-.3-1-.3-1.3 0l-2.5 1.8.3-3c0-.5-.2-1-.6-1.2l-2.8-1.2 2.8-1.3c.4-.2.7-.6.6-1.1l-.3-3 2.5 1.7c.4.3 1 .3 1.3 0l2.5-1.8-.4 3c0 .6.3 1 .7 1.2l2.8 1.3-2.8 1.2z"/>
  <path fill="#FFF" d="m277 262.4-5.2 1.4-3.5-2 5.7-1.5a1.1 1.1 0 1 0-.6-2.2l-7.9 2.1-3-1.7-.2-.1 3.1-1.4a1.1 1.1 0 0 0 0-2l-3.1-1.5h.3l3-1.8 7.8 2a1.1 1.1 0 1 0 .6-2.1l-5.7-1.5 3.5-2 5.1 1.4a1.1 1.1 0 1 0 .6-2.2l-3-.8 2.9-1.7a1.1 1.1 0 1 0-1.1-2l-2.9 1.7.8-3a1.1 1.1 0 1 0-2.2-.5l-1.4 5.1-3.4 2 1.5-5.7a1.1 1.1 0 0 0-2.2-.6l-2 8-3 1.6c-.2 0-.2.2-.3.2l.4-3.4a1.1 1.1 0 0 0-1.8-1l-2.8 2v-3.7l5.8-5.8a1.1 1.1 0 0 0-1.6-1.6l-4.2 4.2v-4l3.8-3.8a1.1 1.1 0 1 0-1.6-1.6l-2.2 2.2v-3.3a1.1 1.1 0 1 0-2.2 0v3.3l-2.2-2.2a1.1 1.1 0 0 0-1.6 1.6l3.8 3.8v4l-4.2-4.2a1.1 1.1 0 1 0-1.6 1.6l5.8 5.8v3.7l-2.8-2a1.1 1.1 0 0 0-1.8 1l.4 3.5-.3-.3-3-1.7-2-7.8a1.1 1.1 0 1 0-2.2.5l1.5 5.7-3.5-2-1.3-5.1a1.1 1.1 0 1 0-2.2.6l.8 3-2.9-1.7a1.1 1.1 0 0 0-1 2l2.8 1.6-3 .8a1.1 1.1 0 1 0 .6 2.2l5.1-1.4 3.5 2-5.7 1.5a1.1 1.1 0 1 0 .6 2.2l7.8-2.1 3 1.7.3.1-3.1 1.4a1.1 1.1 0 0 0 0 2l3.1 1.5a1 1 0 0 0-.3.1l-3 1.7-7.8-2a1.1 1.1 0 1 0-.6 2.1l5.7 1.5-3.5 2-5.1-1.3a1.1 1.1 0 1 0-.6 2.1l3 .8-2.9 1.7a1.1 1.1 0 1 0 1.1 2l2.9-1.7-.8 3a1.1 1.1 0 0 0 2.2.5l1.3-5.1 3.5-2-1.5 5.7a1.1 1.1 0 0 0 2.2.5l2-7.8 3-1.7.3-.2-.4 3.4a1.1 1.1 0 0 0 1.8 1l2.8-2v3.7l-5.8 5.8a1.1 1.1 0 1 0 1.6 1.6l4.2-4.2v4l-3.8 3.8a1.1 1.1 0 1 0 1.6 1.6l2.2-2.2v3.3a1.1 1.1 0 1 0 2.2 0v-3.3l2.2 2.2a1.1 1.1 0 1 0 1.6-1.6l-3.8-3.8v-4l4.2 4.2a1.1 1.1 0 1 0 1.6-1.6l-5.8-5.8v-3.7l2.8 2a1.1 1.1 0 0 0 1.7-1l-.3-3.5.2.2 3 1.8 2.1 7.8a1.1 1.1 0 1 0 2.2-.6l-1.5-5.6 3.4 2 1.4 5.1a1.1 1.1 0 1 0 2.2-.6l-.8-3 2.9 1.7c.5.3 1.2.1 1.5-.4.3-.6.1-1.2-.4-1.5l-2.9-1.7 3-.8a1.1 1.1 0 1 0-.6-2.2zm-17.6-5.2c-.5.2-.8.6-.7 1.1l.3 3-2.4-1.7c-.4-.3-1-.3-1.4 0l-2.5 1.8.4-3c0-.6-.2-1-.7-1.2l-2.8-1.3 2.8-1.2c.5-.2.7-.7.7-1.1l-.3-3 2.4 1.7c.4.3 1 .3 1.4 0l2.4-1.8-.3 3c0 .5.2 1 .7 1.2l2.8 1.3-2.8 1.2z"/>
</svg>